<svg width="102" height="104" viewBox="0 0 102 104" fill="none" xmlns="http://www.w3.org/2000/svg">
<path fill-rule="evenodd" clip-rule="evenodd" d="M0 17.536V35.036H8.5H17V43.536V52.036H25.5H34V60.536V69.036H25.5H17V77.536V86.036H8.5H0V94.536V103.036H8.5H17V94.536V86.036H25.5H34V77.536V69.036H42.5H51V77.536V86.036H59.5H68V94.536V103.036H85H102V77.536V52.036H93.5H85V34.536V17.036H93.5H102V8.53601V0.0360107H93.5H85V8.53601V17.036H68H51V8.53601V0.0360107H25.5H0V17.536ZM51 34.536V52.036H68H85V69.036V86.036H76.5H68V77.536V69.036H59.5H51V60.536V52.036H42.5H34V43.536V35.036H25.5H17V26.036V17.036H34H51V34.536Z" fill="black"/>
</svg>
