<svg width="101" height="103" viewBox="0 0 101 103" fill="none" xmlns="http://www.w3.org/2000/svg">
<path fill-rule="evenodd" clip-rule="evenodd" d="M34.0102 8.84343V17.6869H25.25H16.4898V26.0101V34.3333H8.2449H0V51.5V68.6667H8.2449H16.4898V76.9899V85.3131H25.25H34.0102V94.1566V103H51.0153H68.0204V94.1566V85.3131H76.2653H84.5102V76.9899V68.6667H92.7551H101V51.5V34.3333H92.7551H84.5102V26.0101V17.6869H76.2653H68.0204V8.84343V0H51.0153H34.0102V8.84343ZM68.0204 26.0101V34.3333H76.2653H84.5102V51.5V68.6667H76.2653H68.0204V76.9899V85.3131H51.0153H34.0102V76.9899V68.6667H25.25H16.4898V51.5V34.3333H25.25H34.0102V26.0101V17.6869H51.0153H68.0204V26.0101ZM50.5 43.1768V52.0202H42.2551H34.0102V60.3434V68.6667H42.2551H50.5V60.3434V52.0202H59.2602H68.0204V43.1768V34.3333H59.2602H50.5V43.1768Z" fill="black"/>
</svg>
